<?xml version="1.0" encoding="UTF-8"?>
<svg width="307px" height="279px" viewBox="0 0 307 279" version="1.1" xmlns="http://www.w3.org/2000/svg" xmlns:xlink="http://www.w3.org/1999/xlink">
    <!-- Generator: Sketch 47.1 (45422) - http://www.bohemiancoding.com/sketch -->
    <title>comp-backpack</title>
    <desc>Created with Sketch.</desc>
    <defs></defs>
    <g id="Page-1" stroke="none" stroke-width="1" fill="none" fill-rule="evenodd">
        <g id="assets" transform="translate(-48.000000, -264.000000)">
            <g id="comp-backpack" transform="translate(48.000000, 264.000000)">
                <g id="composition">
                    <g id="lb-backpack" transform="translate(27.000000, 0.000000)">
                        <g id="comp-backpack">
                            <g id="plant-pot" transform="translate(0.000000, 41.839080)">
                                <path d="M122.204746,135.172414 L1.16690193,135.172414 L0,123.550447 C0,122.26672 1.0490928,121.226054 2.34321436,121.226054 L121.028433,121.226054 C122.322555,121.226054 123.371648,122.26672 123.371648,123.550447 L122.204746,135.172414 Z" id="Shape" fill="#F9685D" fill-rule="nonzero"></path>
                                <polygon id="Shape" fill="#F9685D" fill-rule="nonzero" points="107.272536 236.015326 17.1719089 236.015326 5.36398467 135.172414 119.08046 135.172414"></polygon>
                                <polygon id="Shape" fill="#E84D39" fill-rule="nonzero" points="117.733693 146.97318 6.75817332 146.97318 5.36398467 135.172414 119.08046 135.172414"></polygon>
                                <path d="M62.2222222,48.2758621 L62.2222222,121.226054" id="Shape" stroke="#74CF70" stroke-width="4.78"></path>
                                <path d="M61.6904701,0 C70.2119264,4.11704554 76.1685824,13.6179199 76.1685824,24.6743295 C76.1685824,35.7307391 70.2026337,45.2316135 61.6904701,49.348659 C53.1690138,45.2316135 47.2030651,35.7307391 47.2030651,24.6743295 C47.2030651,13.6179199 53.1690138,4.11704554 61.6904701,0 Z" id="Shape" fill="#74CF70"></path>
                                <path d="M19.3829808,43.8223212 C27.2836764,38.5141148 38.5409989,38.1496428 48.1246828,43.7475578 C57.7083668,49.3454727 62.906931,59.3357415 62.1495862,68.8213569 C54.2488906,74.1295634 42.9915682,74.4940353 33.4078842,68.8961204 C23.8242003,63.2982055 18.6256361,53.3079366 19.3829808,43.8223212 Z" id="Shape" fill="#74CF70"></path>
                                <path d="M105.061464,43.8223212 C97.160768,38.5141148 85.9034456,38.1496428 76.3197616,43.7475578 C66.7360776,49.3454727 61.5375135,59.3357415 62.2948582,68.8213569 C70.1955538,74.1295634 81.4528763,74.4940353 91.0365602,68.8961204 C100.620244,63.2982055 105.818808,53.3079366 105.061464,43.8223212 Z" id="Shape" fill="#74CF70"></path>
                                <path d="M19.3829808,77.0790262 C27.2836764,71.7708197 38.5409989,71.4063478 48.1246828,77.0042627 C57.7083668,82.6021776 62.906931,92.5924465 62.1495862,102.078062 C54.2488906,107.386268 42.9915682,107.75074 33.4078842,102.152825 C23.8242003,96.5549105 18.6256361,86.5646416 19.3829808,77.0790262 Z" id="Shape" fill="#74CF70"></path>
                                <path d="M105.061464,77.0790262 C97.160768,71.7708197 85.9034456,71.4063478 76.3197616,77.0042627 C66.7360776,82.6021776 61.5375135,92.5924465 62.2948582,102.078062 C70.1955538,107.386268 81.4528763,107.75074 91.0365602,102.152825 C100.620244,96.5549105 105.818808,86.5646416 105.061464,77.0790262 Z" id="Shape" fill="#74CF70"></path>
                                <g id="Group" opacity="0.58" transform="translate(19.310345, 0.000000)" fill="#1FAB54">
                                    <path d="M43.3727136,0.595254666 C52.034033,4.77148582 58.0884558,14.4089423 58.0884558,25.6242961 C58.0884558,36.8396499 52.0245877,46.4771064 43.3727136,50.6533376 L43.3727136,0.595254666 Z" id="Shape"></path>
                                    <path d="M0.170014993,43.3968997 C8.15127436,38.0301592 19.5233883,37.6616682 29.2047976,43.3213118 C38.8862069,48.9809554 44.1377811,59.0813877 43.3727136,68.6716018 L0.170014993,43.3968997 Z" id="Shape"></path>
                                    <path d="M86.7265367,43.3968997 C78.7452774,38.0301592 67.3731634,37.6616682 57.6917541,43.3213118 C48.0103448,48.9809554 42.7587706,59.0813877 43.5238381,68.6716018 L86.7265367,43.3968997 Z" id="Shape"></path>
                                    <path d="M0.170014993,77.0335126 C8.15127436,71.6667721 19.5233883,71.2982811 29.2047976,76.9579247 C38.8862069,82.6175683 44.1377811,92.7180006 43.3727136,102.308215 L0.170014993,77.0335126 Z" id="Shape"></path>
                                    <path d="M86.7265367,77.0335126 C78.7452774,71.6667721 67.3731634,71.2982811 57.6917541,76.9579247 C48.0103448,82.6175683 42.7587706,92.7180006 43.5238381,102.308215 L86.7265367,77.0335126 Z" id="Shape"></path>
                                </g>
                            </g>
                            <g id="backpack" transform="translate(94.406130, 0.000000)">
                                <path d="M111.570881,32.7060016 L111.570881,18.4157965 C111.570881,8.25439902 103.415326,0 93.3333333,0 C83.2513403,0 75.0957854,8.25439902 75.0957854,18.4157965 L75.0957854,32.7073693 C75.0957854,34.1957378 76.3068257,35.4022989 77.8007195,35.4022989 C79.2946134,35.4022989 80.5056536,34.1957378 80.5056536,32.7073693 L80.5056536,18.4157965 C80.5056536,11.2122968 86.2583693,5.38985904 93.3333333,5.38985904 C100.408297,5.38985904 106.161013,11.2122968 106.161013,18.4157965 L106.161013,32.7060016 C106.161013,34.1943701 107.372053,35.4009311 108.865947,35.4009311 C110.359841,35.4009311 111.570881,34.1943701 111.570881,32.7060016 Z" id="Shape" fill="#1152B0" fill-rule="nonzero"></path>
                                <ellipse id="Oval" fill="#66AFE9" fill-rule="nonzero" cx="92.7969349" cy="114.789272" rx="92.7969349" ry="93.3333333"></ellipse>
                                <path d="M169.91063,278.927203 L15.684604,278.927203 C7.02218308,278.927203 0,271.86183 0,263.14613 L0,115.862069 L185.59387,115.862069 L185.59387,263.14613 C185.59387,271.86183 178.573051,278.927203 169.91063,278.927203 Z" id="Shape" fill="#66AFE9" fill-rule="nonzero"></path>
                                <path d="M169.91063,278.927203 L15.684604,278.927203 C7.02218308,278.927203 0,271.722394 0,262.834689 L0,252.10728 L185.59387,252.10728 L185.59387,262.834689 C185.59387,271.722394 178.573051,278.927203 169.91063,278.927203 Z" id="Shape" fill="#1152B0" fill-rule="nonzero"></path>
                                <g id="Group" transform="translate(69.731801, 54.712644)" fill-rule="nonzero">
                                    <path d="M45.9789323,26.3465481 L26.3724574,45.9530231 C24.8424487,47.4830318 22.3619801,47.4830318 20.8306077,45.9530231 L1.22413282,26.3465481 C-0.305875862,24.8165395 -0.305875862,22.3360708 1.22413282,20.8046985 L20.8306077,1.19822358 C22.3606164,-0.3317851 24.8410851,-0.3317851 26.3724574,1.19822358 L45.9789323,20.8046985 C47.508941,22.3360708 47.508941,24.8165395 45.9789323,26.3465481 Z" id="Shape" fill="#1B6CE1"></path>
                                    <g transform="translate(10.127203, 16.945424)" id="Shape" fill="#66AFE9">
                                        <path d="M2.37290285,4.0096453 L24.5757562,4.0096453 C25.4269857,4.0096453 26.1170435,3.31958744 26.1170435,2.46835794 C26.1170435,1.61712844 25.4269857,0.927070583 24.5757562,0.927070583 L2.37290285,0.927070583 C1.52167335,0.927070583 0.831615496,1.61712844 0.831615496,2.46835794 C0.831615496,3.31958744 1.52167335,4.0096453 2.37290285,4.0096453 Z"></path>
                                        <path d="M2.37290285,12.3360562 L24.5757562,12.3360562 C25.4269857,12.3360562 26.1170435,11.6459983 26.1170435,10.7947688 C26.1170435,9.94353934 25.4269857,9.25348148 24.5757562,9.25348148 L2.37290285,9.25348148 C1.52167335,9.25348148 0.831615496,9.94353934 0.831615496,10.7947688 C0.831615496,11.6459983 1.52167335,12.3360562 2.37290285,12.3360562 Z"></path>
                                    </g>
                                </g>
                                <path d="M163.426394,233.869732 L23.2402727,233.869732 C21.0694424,233.869732 19.3103448,232.096901 19.3103448,229.909123 L19.3103448,152.006586 C19.3103448,149.818808 21.0694424,148.045977 23.2402727,148.045977 L163.426394,148.045977 C165.597224,148.045977 167.356322,149.818808 167.356322,152.006586 L167.356322,229.909123 C167.356322,232.095523 165.597224,233.869732 163.426394,233.869732 Z" id="Shape" fill="#1B6CE1" fill-rule="nonzero"></path>
                                <g id="Group" transform="translate(27.892720, 166.283525)">
                                    <polygon id="Shape" fill="#66AFE9" fill-rule="nonzero" points="0.297109533 6.49316305 128.345994 6.49316305 128.345994 0.915170711 0.297109533 0.915170711"></polygon>
                                    <g transform="translate(0.000000, 2.847169)" id="Shape">
                                        <path d="M0.297109533,0.856997871 L1.27546484,0.856997871" stroke="#085566" stroke-width="1.4367"></path>
                                        <path d="M2.44704192,1.55424691 L3.80491884,1.55424691 L3.80491884,0.159748829 L2.44704192,0.159748829 L2.44704192,1.55424691 Z M4.75150438,1.55424691 L6.1093813,1.55424691 L6.1093813,0.159748829 L4.75150438,0.159748829 L4.75150438,1.55424691 Z M7.05596683,1.55424691 L8.41384375,1.55424691 L8.41384375,0.159748829 L7.05596683,0.159748829 L7.05596683,1.55424691 Z M9.36042928,1.55424691 L10.7183062,1.55424691 L10.7183062,0.159748829 L9.36042928,0.159748829 L9.36042928,1.55424691 Z M11.6648917,1.55424691 L13.0227687,1.55424691 L13.0227687,0.159748829 L11.6648917,0.159748829 L11.6648917,1.55424691 Z M13.9693542,1.55424691 L15.3272311,1.55424691 L15.3272311,0.159748829 L13.9693542,0.159748829 L13.9693542,1.55424691 Z M16.2738166,1.55424691 L17.6316936,1.55424691 L17.6316936,0.159748829 L16.2738166,0.159748829 L16.2738166,1.55424691 Z M18.5782791,1.55424691 L19.936156,1.55424691 L19.936156,0.159748829 L18.5782791,0.159748829 L18.5782791,1.55424691 Z M20.8827416,1.55424691 L22.2406185,1.55424691 L22.2406185,0.159748829 L20.8827416,0.159748829 L20.8827416,1.55424691 Z M23.187204,1.55424691 L24.5450809,1.55424691 L24.5450809,0.159748829 L23.187204,0.159748829 L23.187204,1.55424691 Z M25.4916665,1.55424691 L26.8495434,1.55424691 L26.8495434,0.159748829 L25.4916665,0.159748829 L25.4916665,1.55424691 Z M27.7961289,1.55424691 L29.1540058,1.55424691 L29.1540058,0.159748829 L27.7961289,0.159748829 L27.7961289,1.55424691 Z M30.1005914,1.55424691 L31.4584683,1.55424691 L31.4584683,0.159748829 L30.1005914,0.159748829 L30.1005914,1.55424691 Z M32.4050538,1.55424691 L33.7629308,1.55424691 L33.7629308,0.159748829 L32.4050538,0.159748829 L32.4050538,1.55424691 Z M34.7095163,1.55424691 L36.0673932,1.55424691 L36.0673932,0.159748829 L34.7095163,0.159748829 L34.7095163,1.55424691 Z M37.0139787,1.55424691 L38.3718557,1.55424691 L38.3718557,0.159748829 L37.0139787,0.159748829 L37.0139787,1.55424691 Z M39.3184412,1.55424691 L40.6763181,1.55424691 L40.6763181,0.159748829 L39.3184412,0.159748829 L39.3184412,1.55424691 Z M41.6229037,1.55424691 L42.9807806,1.55424691 L42.9807806,0.159748829 L41.6229037,0.159748829 L41.6229037,1.55424691 Z M43.9273661,1.55424691 L45.285243,1.55424691 L45.285243,0.159748829 L43.9273661,0.159748829 L43.9273661,1.55424691 Z M46.2318286,1.55424691 L47.5897055,1.55424691 L47.5897055,0.159748829 L46.2318286,0.159748829 L46.2318286,1.55424691 Z M48.536291,1.55424691 L49.8941679,1.55424691 L49.8941679,0.159748829 L48.536291,0.159748829 L48.536291,1.55424691 Z M50.8407535,1.55424691 L52.1986304,1.55424691 L52.1986304,0.159748829 L50.8407535,0.159748829 L50.8407535,1.55424691 Z M53.1452159,1.55424691 L54.5030928,1.55424691 L54.5030928,0.159748829 L53.1452159,0.159748829 L53.1452159,1.55424691 Z M55.4496784,1.55424691 L56.8075553,1.55424691 L56.8075553,0.159748829 L55.4496784,0.159748829 L55.4496784,1.55424691 Z M57.7541408,1.55424691 L59.1120178,1.55424691 L59.1120178,0.159748829 L57.7541408,0.159748829 L57.7541408,1.55424691 Z M60.0586033,1.55424691 L61.4164802,1.55424691 L61.4164802,0.159748829 L60.0586033,0.159748829 L60.0586033,1.55424691 Z M62.3630657,1.55424691 L63.7209427,1.55424691 L63.7209427,0.159748829 L62.3630657,0.159748829 L62.3630657,1.55424691 Z M64.6675282,1.55424691 L66.0254051,1.55424691 L66.0254051,0.159748829 L64.6675282,0.159748829 L64.6675282,1.55424691 Z M66.9719907,1.55424691 L68.3298676,1.55424691 L68.3298676,0.159748829 L66.9719907,0.159748829 L66.9719907,1.55424691 Z M69.2764531,1.55424691 L70.63433,1.55424691 L70.63433,0.159748829 L69.2764531,0.159748829 L69.2764531,1.55424691 Z M71.5809156,1.55424691 L72.9387925,1.55424691 L72.9387925,0.159748829 L71.5809156,0.159748829 L71.5809156,1.55424691 Z M73.885378,1.55424691 L75.2432549,1.55424691 L75.2432549,0.159748829 L73.885378,0.159748829 L73.885378,1.55424691 Z M76.1898405,1.55424691 L77.5477174,1.55424691 L77.5477174,0.159748829 L76.1898405,0.159748829 L76.1898405,1.55424691 Z M78.4943029,1.55424691 L79.8521799,1.55424691 L79.8521799,0.159748829 L78.4943029,0.159748829 L78.4943029,1.55424691 Z M80.7987654,1.55424691 L82.1566423,1.55424691 L82.1566423,0.159748829 L80.7987654,0.159748829 L80.7987654,1.55424691 Z M83.1032278,1.55424691 L84.4611048,1.55424691 L84.4611048,0.159748829 L83.1032278,0.159748829 L83.1032278,1.55424691 Z M85.4076903,1.55424691 L86.7655672,1.55424691 L86.7655672,0.159748829 L85.4076903,0.159748829 L85.4076903,1.55424691 Z M87.7121527,1.55424691 L89.0700297,1.55424691 L89.0700297,0.159748829 L87.7121527,0.159748829 L87.7121527,1.55424691 Z M90.0166152,1.55424691 L91.3744921,1.55424691 L91.3744921,0.159748829 L90.0166152,0.159748829 L90.0166152,1.55424691 Z M92.3210777,1.55424691 L93.6789546,1.55424691 L93.6789546,0.159748829 L92.3210777,0.159748829 L92.3210777,1.55424691 Z M94.6255401,1.55424691 L95.983417,1.55424691 L95.983417,0.159748829 L94.6255401,0.159748829 L94.6255401,1.55424691 Z M96.9300026,1.55424691 L98.2878795,1.55424691 L98.2878795,0.159748829 L96.9300026,0.159748829 L96.9300026,1.55424691 Z M99.234465,1.55424691 L100.592342,1.55424691 L100.592342,0.159748829 L99.234465,0.159748829 L99.234465,1.55424691 Z M101.538927,1.55424691 L102.896804,1.55424691 L102.896804,0.159748829 L101.538927,0.159748829 L101.538927,1.55424691 Z M103.84339,1.55424691 L105.201267,1.55424691 L105.201267,0.159748829 L103.84339,0.159748829 L103.84339,1.55424691 Z M106.147852,1.55424691 L107.505729,1.55424691 L107.505729,0.159748829 L106.147852,0.159748829 L106.147852,1.55424691 Z M108.452315,1.55424691 L109.810192,1.55424691 L109.810192,0.159748829 L108.452315,0.159748829 L108.452315,1.55424691 Z M110.756777,1.55424691 L112.114654,1.55424691 L112.114654,0.159748829 L110.756777,0.159748829 L110.756777,1.55424691 Z M113.06124,1.55424691 L114.419117,1.55424691 L114.419117,0.159748829 L113.06124,0.159748829 L113.06124,1.55424691 Z M115.365702,1.55424691 L116.723579,1.55424691 L116.723579,0.159748829 L115.365702,0.159748829 L115.365702,1.55424691 Z M117.670165,1.55424691 L119.028042,1.55424691 L119.028042,0.159748829 L117.670165,0.159748829 L117.670165,1.55424691 Z M119.974627,1.55424691 L121.332504,1.55424691 L121.332504,0.159748829 L119.974627,0.159748829 L119.974627,1.55424691 Z M122.27909,1.55424691 L123.636966,1.55424691 L123.636966,0.159748829 L122.27909,0.159748829 L122.27909,1.55424691 Z M124.583552,1.55424691 L125.941429,1.55424691 L125.941429,0.159748829 L124.583552,0.159748829 L124.583552,1.55424691 Z" fill="#085566" fill-rule="nonzero"></path>
                                        <path d="M127.368999,0.856997871 L128.345994,0.856997871" stroke="#085566" stroke-width="1.4367"></path>
                                    </g>
                                    <g transform="translate(122.878634, 0.000000)" id="Shape" fill-rule="nonzero">
                                        <path d="M2.91737661,1.41219583 C2.91737661,1.41219583 0.308882691,1.58302597 0.308882691,2.98098595 C0.308882691,4.38036952 0.308882691,7.10938101 0.308882691,7.62044785 C0.308882691,8.13293827 0.864055105,8.09734866 1.1892664,8.09734866 C1.51447769,8.09734866 2.91737661,8.09734866 2.91737661,8.09734866 C2.91737661,8.09734866 4.31891481,8.09734866 4.64548682,8.09734866 C4.97205882,8.09734866 5.52587052,8.13151469 5.52587052,7.62044785 C5.52587052,7.10938101 5.52587052,4.38036952 5.52587052,2.98098595 C5.52723124,1.58302597 2.91737661,1.41219583 2.91737661,1.41219583 Z" fill="#1152B0"></path>
                                        <path d="M4.77611562,8.58848531 C4.77611562,7.08802725 4.38422921,6.13280204 2.95003381,6.13280204 L2.88471941,6.13280204 C1.450524,6.13280204 1.05863759,7.08802725 1.05863759,8.58848531 L0.27622549,17.5955045 C0.27622549,19.0959625 1.450524,20.324516 2.88471941,20.324516 L2.95003381,20.324516 C4.38422921,20.324516 5.55852772,19.0959625 5.55852772,17.5955045 L4.77611562,8.58848531 Z M2.91737661,19.0262069 C2.0533215,19.0262069 1.35391312,18.2930609 1.35391312,17.3905083 C1.35391312,16.4879557 2.0533215,15.7548097 2.91737661,15.7548097 C3.78143171,15.7548097 4.48084009,16.4879557 4.48084009,17.3905083 C4.48084009,18.2930609 3.78143171,19.0262069 2.91737661,19.0262069 Z" fill="#66AFE9"></path>
                                        <path d="M2.92145876,0.84703278 L2.91465517,0.84703278 C2.54726166,0.84703278 2.25062542,1.15879779 2.25062542,1.54174202 L2.25062542,8.09165432 C2.25062542,8.47602214 2.54862238,8.78636356 2.91465517,8.78636356 L2.92145876,8.78636356 C3.28885227,8.78636356 3.58548851,8.47459855 3.58548851,8.09165432 L3.58548851,1.54174202 C3.58548851,1.15879779 3.28885227,0.84703278 2.92145876,0.84703278 Z" fill="#0C7F99"></path>
                                    </g>
                                </g>
                            </g>
                        </g>
                    </g>
                    <g id="pencilEraser" transform="translate(0.000000, 239.000000)" fill-rule="nonzero">
                        <g id="eraser" transform="translate(81.614286, 29.000000) scale(1, -1) rotate(90.000000) translate(-81.614286, -29.000000) translate(70.614286, 7.500000)">
                            <path d="M19.8548952,11.5661333 L0.100152381,11.5661333 L0.100152381,40.1227619 C0.100152381,41.1869333 0.97072381,42.0575048 2.03489524,42.0575048 L19.9854286,42.0575048 C21.0496,42.0575048 21.9201714,41.1869333 21.9201714,40.1227619 L21.9201714,13.6312 C21.9199619,12.4953714 20.9907238,11.5661333 19.8548952,11.5661333 Z" id="Shape" fill="#ED5FA6"></path>
                            <path d="M19.8548952,4.31765714 L2.16500952,0.152742857 C1.02918095,0.152742857 0.0999428571,1.08198095 0.0999428571,2.21780952 L0.0999428571,32.7439619 C0.0999428571,33.8797905 1.02918095,34.8090286 2.16500952,34.8090286 L19.8548952,34.8090286 C20.9907238,34.8090286 21.9199619,33.8797905 21.9199619,32.7439619 L21.9199619,6.38251429 C21.9199619,5.24689524 21.0634286,4.55085714 19.8548952,4.31765714 Z" id="Shape" fill="#FFBDE0"></path>
                            <polygon id="Shape" fill="#FF91C5" points="0.100152381 4.41655238 0.100152381 37.8928 21.9199619 37.8928 21.9199619 9.46649524"></polygon>
                        </g>
                        <g id="Group" transform="translate(49.000000, 17.735955) rotate(-90.000000) translate(-49.000000, -17.735955) translate(31.500000, -31.264045)">
                            <polygon id="Shape" fill="#EEEDED" points="34.0676629 84.8030337 34.7977079 87.2508315 32.8553258 97.9256742 25.3831011 90.0581461 24.6536067 87.6108989"></polygon>
                            <polygon id="Shape" fill="#1586CA" points="30.4234944 95.3644607 33.4879213 94.4505281 32.8553258 97.9256742"></polygon>
                            <path d="M9.83468539,3.55167416 C9.05949438,0.951921348 6.32320225,-0.52688764 3.72344944,0.248303371 C1.12369663,1.02349438 -0.35511236,3.75978652 0.420078652,6.35953933 L9.83468539,3.55167416 Z" id="Shape" fill="#A75A05"></path>
                            <path d="M31.9524045,86.1172247 C30.6541798,86.5042697 29.9109213,87.8487416 30.2478652,89.1497191 L30.2302472,89.1546742 C29.7997079,87.8817753 28.4414719,87.1643933 27.1432472,87.5514382 C26.0443258,87.8790225 25.3489663,88.8942584 25.3621798,89.9871236 L1.76179775,10.8570787 L11.1764045,8.04921348 L34.7767865,87.179809 C34.1893371,86.2581685 33.0513258,85.7896404 31.9524045,86.1172247 Z" id="Shape" fill="#FFBE26"></path>
                            <rect id="Rectangle-path" fill="#E3E5E6" transform="translate(6.168639, 8.446160) rotate(163.393501) translate(-6.168639, -8.446160) " x="1.25647666" y="4.80294965" width="9.82432556" height="7.28642067"></rect>
                        </g>
                    </g>
                </g>
            </g>
        </g>
    </g>
</svg>