<?xml version="1.0" encoding="UTF-8"?>
<svg width="8px" height="8px" viewBox="0 0 8 8" version="1.1" xmlns="http://www.w3.org/2000/svg" xmlns:xlink="http://www.w3.org/1999/xlink">
    <!-- Generator: Sketch 47.1 (45422) - http://www.bohemiancoding.com/sketch -->
    <title>Glyphs / Inline New Tab / 15sp</title>
    <desc>Created with Sketch.</desc>
    <defs>
        <path d="M15,6.70710678 L8.85355339,12.8535534 C8.65829124,13.0488155 8.34170876,13.0488155 8.14644661,12.8535534 C7.95118446,12.6582912 7.95118446,12.3417088 8.14644661,12.1464466 L14.2928932,6 L9.5,6 C9.22385763,6 9,5.77614237 9,5.5 C9,5.22385763 9.22385763,5 9.5,5 L15.4999999,5 C15.5639806,5 15.6279612,5.01220388 15.6881505,5.03661165 C15.8740801,5.11519661 16,5.29289322 16,5.5 L16,11.5 C16,11.7761424 15.7761424,12 15.5,12 C15.2238576,12 15,11.7761424 15,11.5 L15,6.70710678 Z" id="path-1"></path>
    </defs>
    <g id="Page-1" stroke="none" stroke-width="1" fill="none" fill-rule="evenodd">
        <g id="assets" transform="translate(-56.000000, -116.000000)">
            <g id="Glyphs-/-Inline-New-Tab-/-15sp" transform="translate(48.000000, 111.000000)">
                <rect id="bounds" x="0" y="0" width="16" height="18"></rect>
                <mask id="mask-2" fill="white">
                    <use xlink:href="#path-1"></use>
                </mask>
                <use id="newTab" fill="#000000" fill-rule="nonzero" xlink:href="#path-1"></use>
                <g id="_Tint-/-Domain-/-Default3" mask="url(#mask-2)" fill-rule="evenodd" fill="#1152B0">
                    <g transform="translate(8.000000, 0.000000)" id="bg">
                        <rect x="0" y="0" width="8" height="18"></rect>
                    </g>
                </g>
            </g>
        </g>
    </g>
</svg>