<?xml version="1.0" encoding="UTF-8"?>
<svg width="40px" height="56px" viewBox="0 0 40 56" version="1.1" xmlns="http://www.w3.org/2000/svg" xmlns:xlink="http://www.w3.org/1999/xlink">
    <!-- Generator: Sketch 47.1 (45422) - http://www.bohemiancoding.com/sketch -->
    <title>icon-lightbulb</title>
    <desc>Created with Sketch.</desc>
    <defs></defs>
    <g id="Page-1" stroke="none" stroke-width="1" fill="none" fill-rule="evenodd">
        <g id="assets" transform="translate(-233.000000, -169.000000)">
            <g id="icon-lightbulb" transform="translate(233.000000, 169.000000)">
                <g>
                    <ellipse id="Oval" fill="#1152B0" fill-rule="nonzero" cx="20" cy="51" rx="5.26315789" ry="5"></ellipse>
                    <path d="M40,19 C40,8.50663747 31.0456448,2.52575738e-15 20,2.52575738e-15 C8.95435523,2.52575738e-15 -4.31016334e-13,8.50663747 -4.31016334e-13,19 C-4.31016334e-13,23.2792536 1.50719246,27.2145139 4.0199799,30.390823 C6.39476803,33.4346078 10.5263158,38 10.5263158,38 L29.4736842,38 C29.4736842,38 33.605232,33.4346078 36.00852,30.390823 C38.4931075,27.2145139 40,23.2792536 40,19 Z" id="Shape" fill="#D2E7F7" fill-rule="nonzero"></path>
                    <path d="M10.5263158,38 L29.4736842,38 L29.4736842,47.33324 C29.4736842,49.91064 27.3529159,52 24.7367711,52 L15.2632289,52 C12.6470841,52 10.5263158,49.91064 10.5263158,47.33324 L10.5263158,38 Z" id="Shape" fill="#1152B0" fill-rule="nonzero"></path>
                    <path d="M10.185808,41.9407897 L29.7372717,39.6191579 C30.4069282,39.5396398 30.8819371,38.959457 30.7982338,38.3232834 C30.7145305,37.6871098 30.1038118,37.2358513 29.4341553,37.3153695 L9.88269159,39.6370013 C9.21303516,39.7165194 8.73802628,40.2967022 8.82172957,40.9328758 C8.90543286,41.5690494 9.51615158,42.0203079 10.185808,41.9407897 Z" id="Shape" fill="#66AFE9" fill-rule="nonzero"></path>
                    <path d="M10.1858259,46.5843299 L29.7372897,44.2624195 C30.4069449,44.1828919 30.8819447,43.6027025 30.7982315,42.9665301 C30.7145184,42.3303576 30.1037926,41.8791077 29.4341374,41.9586353 L9.88267369,44.2805457 C9.21301849,44.3600732 8.73801863,44.9402627 8.82173181,45.5764351 C8.90544499,46.2126076 9.51617072,46.6638574 10.1858259,46.5843299 Z" id="Shape" fill="#66AFE9" fill-rule="nonzero"></path>
                    <path d="M19.9617067,50.0669167 L29.7372919,48.9059615 C30.4069469,48.8264328 30.8819457,48.2462425 30.7982313,47.6100702 C30.7145168,46.9738979 30.1037902,46.5226491 29.4341352,46.6021778 L19.65855,47.763133 C18.9888949,47.8426617 18.5138962,48.422852 18.5976106,49.0590243 C18.681325,49.6951966 19.2920516,50.1464454 19.9617067,50.0669167 Z" id="Shape" fill="#66AFE9" fill-rule="nonzero"></path>
                    <path d="M27.2031745,23.1604186 C29.2188708,23.1604186 30.8528789,21.6019496 30.8528789,19.6794376 C30.8528789,17.7569256 29.2188708,16.1984565 27.2031745,16.1984565 C25.1874782,16.1984565 23.55347,17.7569256 23.55347,19.6794376 L23.55347,23.1604186 L27.2031745,23.1604186 Z M16.44653,19.6794376 C16.44653,17.7569256 14.8125218,16.1984565 12.7968255,16.1984565 C10.7811292,16.1984565 9.14712109,17.7569256 9.14712109,19.6794376 C9.14712109,21.6019496 10.7811292,23.1604186 12.7968255,23.1604186 L16.44653,23.1604186 L16.44653,19.6794376 Z M18.7515458,38 L16.44653,38 L16.44653,23.1604186 L23.55347,23.1604186 L23.55347,38 L21.2484542,38 L21.2484542,19.6794376 C21.2484542,16.5427516 23.9144531,14 27.2031745,14 C30.4918959,14 33.1578947,16.5427516 33.1578947,19.6794376 C33.1578947,22.8161236 30.4918959,25.3588751 27.2031745,25.3588751 L12.7968255,25.3588751 C9.50810415,25.3588751 6.84210526,22.8161236 6.84210526,19.6794376 C6.84210526,16.5427516 9.50810415,14 12.7968255,14 C16.0855469,14 18.7515458,16.5427516 18.7515458,19.6794376 L18.7515458,38 Z" id="Shape" fill="#FFFFFF" fill-rule="nonzero"></path>
                </g>
            </g>
        </g>
    </g>
</svg>