<?xml version="1.0" encoding="utf-8"?>
<!-- Generator: Adobe Illustrator 18.1.1, SVG Export Plug-In . SVG Version: 6.00 Build 0)  -->
<svg version="1.1" id="Layer_1" xmlns="http://www.w3.org/2000/svg" xmlns:xlink="http://www.w3.org/1999/xlink" x="0px" y="0px"
	 viewBox="0 0 316.5 72" enable-background="new 0 0 316.5 72" xml:space="preserve">
<rect x="0" y="0" fill="#25303C" width="316.5" height="72"/>
<g>
	<g>
		<path fill="#FFFFFF" d="M109.4,23.4H104l-0.1,0.3L94.7,49h3.4c0.9,0,1.6-0.1,2.1-0.5c0.6-0.4,0.9-1,1.2-1.8l1.4-4h7.7l1.4,4
			c0.3,0.8,0.6,1.4,1.2,1.8c0.6,0.4,1.3,0.5,2.2,0.5h3.4L109.4,23.4z M106.7,30.3c0.2,0.7,0.4,1.5,0.6,2.1l1.9,5.6h-5l1.9-5.6
			C106.3,31.8,106.5,31,106.7,30.3z"/>
		<path fill="#FFFFFF" d="M69.3,43.7l-0.4,0.2L69.3,43.7l-3.1-6.3c-0.4-0.8-0.9-1.3-1.2-1.6c0.3-0.3,0.8-0.8,1.2-1.6L72,23.4h-6
			l-5.1,9.5c-0.2,0.3-0.3,0.4-0.6,0.5c-0.2,0.1-0.6,0.1-1,0.1h-2.2v-7.2c0-0.9-0.2-1.6-0.7-2.1c-0.5-0.5-1.2-0.7-2.1-0.7h-2.7v5.1v4
			V49h5.5V38.2H59c0.5,0,0.9,0,1.2,0.1c0.3,0.1,0.4,0.2,0.6,0.5l4,8.1c0.4,0.8,0.9,1.4,1.5,1.7C67,49,67.7,49,68.6,49H72l-0.3-0.7
			C71.6,48.3,69.6,44.4,69.3,43.7z"/>
		<path fill="#FFFFFF" d="M92.7,23.4h-2.2c-0.9,0-1.6,0.2-2.1,0.7c-0.5,0.5-0.7,1.2-0.7,2.1v7.7h-8.2v-7.7c0-0.9-0.2-1.6-0.7-2.1
			c-0.5-0.5-1.2-0.7-2.1-0.7H74v5.1v4.7V49h5.5V38.6h8.2V49h5.5V33.5v-5v-5.1H92.7z"/>
		<path fill="#FFFFFF" d="M139.7,23.4h-2.2c-0.9,0-1.6,0.2-2.1,0.7c-0.5,0.5-0.7,1.2-0.7,2.1v11.3c0,0.4,0,0.8,0,1.2
			c-0.3-0.7-0.7-1.4-1.1-1.9l-8.1-13.4h-5.3v18v2.5V49h2.6c0,0,0,0,0,0c0.9,0,1.6-0.2,2.1-0.7c0.5-0.5,0.7-1.2,0.7-2.1V34.9
			c0-0.4,0-0.8,0-1.2c0.3,0.7,0.7,1.4,1.1,1.9l8.2,13.4h5.2V32.4v-4v-5.1H139.7z"/>
		<path fill="#FFFFFF" d="M151.6,23.5h2.7L164,49h-0.8c-1.8,0-2.3-0.4-3-2.1l-2.3-6h-10.1l-2.3,6c-0.7,1.7-1.1,2.1-2.9,2.1H142
			L151.6,23.5z M157.3,38.7l-3.4-9.1c-0.4-1.2-1-3.3-1-3.3h-0.1c0,0-0.5,2.1-1,3.3l-3.3,9.1H157.3z"/>
		<path fill="#FFFFFF" d="M195,23.5h2.7l9.7,25.4h-0.8c-1.8,0-2.3-0.4-3-2.1l-2.3-6h-10.1l-2.3,6c-0.7,1.7-1.1,2.1-2.9,2.1h-0.7
			L195,23.5z M200.8,38.7l-3.4-9.1c-0.4-1.2-1-3.3-1-3.3h-0.1c0,0-0.5,2.1-1,3.3l-3.3,9.1H200.8z"/>
		<path fill="#FFFFFF" d="M250.9,23.5h2.6l6.7,14.8c0.6,1.3,1.3,3,1.3,3h0.1c0,0,0.7-1.7,1.2-3l6.7-14.8h2.6l2.2,25.4h-0.7
			c-1.6,0-2.1-0.7-2.2-2.2l-1.2-15.4c-0.1-1.4-0.1-3.5-0.1-3.5h-0.1c0,0-0.7,2.2-1.3,3.5l-6,12.9h-2.3l-6-12.9
			c-0.6-1.3-1.3-3.6-1.3-3.6h-0.1c0,0,0,2.2-0.1,3.6l-1.2,15.4c-0.1,1.6-0.7,2.2-2.2,2.2h-0.6L250.9,23.5z"/>
		<path fill="#FFFFFF" d="M283,37.9l-8.9-14.4h0.8c1.7,0,2.4,0.3,3.5,2l4.3,7.2c0.8,1.3,1.6,2.9,1.6,2.9h0.1c0,0,0.8-1.5,1.6-2.9
			l4.3-7.2c1.1-1.8,1.7-2,3.5-2h0.8l-8.9,14.4V49H283V37.9z"/>
		<path fill="#FFFFFF" d="M182.9,29.7c-1-2.1-3.8-4.5-7.8-4.5c-5.6,0-10,4.4-10,10.6c0,6.1,4.3,11,10.1,11c2.8,0,5-0.9,6.3-1.9
			c1.7-1.2,3.4,0.2,3.4,0.2s-3.5,4.1-9.8,4.1c-7.5,0-12.7-5.9-12.7-13.3c0-7.3,5.4-13,12.6-13c3.6,0,8.1,1.6,9.8,5.4
			c0.8,1.7,0.9,2.6,0.9,2.6S183.6,31.1,182.9,29.7z"/>
		<path fill="#FFFFFF" d="M216.9,23.5H209v2.2v2.2v18.8c0,1.6,0.7,2.2,2.2,2.2h5.6c7.7,0,12.8-4.6,12.8-12.7
			C229.6,28.2,224.5,23.5,216.9,23.5z M216.6,46.7h-4.3c-0.5,0-0.8-0.3-0.8-0.8V25.8h5.1c6.2,0,10.4,3.7,10.4,10.5
			C227,43,222.9,46.7,216.6,46.7z"/>
		<path fill="#FFFFFF" d="M244,46.7h-2.6h-6.3c-0.5,0-0.8-0.3-0.8-0.8v-8.6h9.6V35h-9.6v-9.3h6.5h2.2h3.2v0c0-1.6-0.7-2.2-2.2-2.2
			h-12.2v2.2v2.9v18.1c0,1.6,0.7,2.2,2.2,2.2h11c1.6,0,2.2-0.7,2.2-2.2v0H244z"/>
	</g>
	<path fill="#9CB53B" d="M23.2,47.4c0,0-4.1-9.7,3.2-16.9c6.6-6.6,16.5-7.6,18.3-7.6c0,0,2.7,8.8-4,18.7c-6.7,9.9-15.9,7.2-15.9,7.2
		s9.1-11.6,8-11.6C32,37.3,27.2,42.6,23.2,47.4z"/>
</g>
</svg>
