<?xml version="1.0" encoding="UTF-8"?>
<svg width="390px" height="236px" viewBox="0 0 390 236" version="1.1" xmlns="http://www.w3.org/2000/svg" xmlns:xlink="http://www.w3.org/1999/xlink">
    <!-- Generator: Sketch 47.1 (45422) - http://www.bohemiancoding.com/sketch -->
    <title>lb-laptop</title>
    <desc>Created with Sketch.</desc>
    <defs></defs>
    <g id="Page-1" stroke="none" stroke-width="1" fill="none" fill-rule="evenodd">
        <g id="assets" transform="translate(-387.000000, -307.000000)">
            <g id="lb-laptop" transform="translate(387.000000, 307.000000)">
                <g id="laptop">
                    <path d="M187.571138,133 C190.004631,132.981251 191.97479,130.970247 192,128.47932 L192,117.52068 C191.97479,115.029753 190.004631,113.018749 187.571138,113 L23.4288621,113 C20.9953694,113.018749 19.0252095,115.029753 19,117.52068 L19,128.47932 C19.0252095,130.970247 20.9953694,132.981251 23.4288621,133 L187.571138,133 L187.571138,133 Z" id="Shape" fill="#66AFE9" fill-rule="nonzero"></path>
                    <polygon id="Shape" fill="#1B6CE1" fill-rule="nonzero" points="31 112 45 112 45 132 31 132"></polygon>
                    <polygon id="Shape" fill="#5FB2DE" fill-rule="nonzero" points="167 112 181 112 181 132 167 132"></polygon>
                    <path d="M180.575851,113 C183.006953,112.980556 184.97482,110.969752 185,108.47932 L185,97.5206797 C184.97481,95.0297531 183.00619,93.0187486 180.574599,93 L16.4266528,93 C13.9945732,93.0180528 12.0251999,95.0292578 12,97.5206797 L12,108.47932 C12.0251999,110.970742 13.9945732,112.981947 16.4266528,113 L180.574599,113 L180.575851,113 Z" id="Shape" fill="#F9685D" fill-rule="nonzero"></path>
                    <path d="M23,93 L26.756403,93 L26.756403,113 L23,113 L23,93 Z M30.243597,93 L34,93 L34,113 L30.243597,113 L30.243597,93 Z" id="Shape" fill="#E84D39" fill-rule="nonzero"></path>
                    <path d="M178.557331,198 C180.99841,197.981426 182.974712,195.989147 183,193.521415 L183,164.478585 C182.974712,162.010853 180.99841,160.018574 178.557331,160 L21.4426695,160 C19.0015901,160.018574 17.0252881,162.010853 17,164.478585 L17,193.522685 C17.0259683,195.989921 19.002074,197.981437 21.4426695,198 L178.557331,198 L178.557331,198 Z" id="Shape" fill="#1B6CE1" fill-rule="nonzero"></path>
                    <path d="M36,167 L46.4983718,167 L46.4983718,190 L36,190 L36,167 Z M50.7508141,167 L61.2491859,167 L61.2491859,190 L50.7508141,190 L50.7508141,167 Z M65.5016282,167 L76,167 L76,190 L65.5016282,190 L65.5016282,167 Z" id="Shape" fill="#1152B0" fill-rule="nonzero"></path>
                    <circle id="Oval" fill="#1586CA" fill-rule="nonzero" cx="163.5" cy="178.5" r="7.5"></circle>
                    <path d="M146.895084,216.5 C146.889565,209.788915 150.332088,203.550349 156,200 L15.4181025,200 C12.9905218,200.018359 11.0251483,201.98756 11,204.426707 L11,228.573293 C11.0251483,231.01244 12.9905218,232.981641 15.4181025,233 L156,233 C150.356632,229.426278 146.922297,223.202549 146.895084,216.5 Z" id="Shape" fill="#F0F1F2" fill-rule="nonzero"></path>
                    <path d="M156.717132,235.99996 L20.1353259,235.99996 C17.1817279,236.007898 14.3462439,234.824044 12.253824,232.709325 C10.1647905,230.597688 8.99346153,227.727229 9.00002746,224.735571 L9.00002746,209.263234 C8.99379564,206.272016 10.165099,203.402077 12.253824,201.29075 C14.3462439,199.176031 17.1817279,197.992178 20.1353259,198.000115 L156.717132,198.000115 C157.322752,197.993965 157.905422,198.234869 158.33427,198.668717 C158.763118,199.102565 159.002192,199.692988 158.997795,200.307371 C159.025349,200.926112 158.79365,201.529607 158.359059,201.967935 C157.925721,202.406262 157.329567,202.641308 156.718384,202.613356 L20.1340735,202.613356 C16.5070547,202.620979 13.5676164,205.593986 13.5601019,209.263234 L13.5601019,224.666963 C13.5676164,228.337482 16.5070547,231.310488 20.1353259,231.316841 L156.715879,231.316841 C157.975818,231.316841 158.996543,232.34977 158.996543,233.624097 C158.994469,234.899471 157.974347,235.932055 156.717132,235.931353 L156.717132,235.99996 Z" id="Shape" fill="#66AFE9" fill-rule="nonzero"></path>
                    <polygon id="Shape" fill="#AA87FF" fill-rule="nonzero" points="48 227 40.5 223.414247 33 227 33 210 48 210"></polygon>
                    <path d="M6.73555311,146.499364 C6.72423029,141.449115 4.1902291,136.746738 1.28972577e-14,134.000117 L171.632105,134.000117 C172.527043,133.992595 173.387641,134.348094 174.021491,134.987134 C174.655307,135.625642 175.007427,136.49437 174.999881,137.39744 L174.999881,155.60256 C175.007086,156.506298 174.654478,157.374962 174.021491,158.012866 C173.387641,158.651906 172.527043,159.007405 171.632105,158.999883 L0,158.999883 C4.21895257,156.279688 6.76218302,151.559705 6.73555311,146.499364 L6.73555311,146.499364 Z" id="Shape" fill="#F0F1F2" fill-rule="nonzero"></path>
                    <path d="M165.83686,160.999972 L2.28821617,160.999972 C1.68126629,161.002977 1.09825235,160.76429 0.668736228,160.336951 C0.239478087,159.911168 -0.00062846567,159.331718 0.0021130876,158.728188 C-0.0248689142,158.117311 0.207541276,157.52335 0.642372601,157.091903 C1.07674474,156.660314 1.67432029,156.428883 2.28821617,156.456404 L165.83686,156.456404 C169.473785,156.448898 172.420234,153.5216 172.427766,149.908763 L172.427766,143.093412 C172.420234,139.480575 169.473785,136.553276 165.83686,136.54577 L2.28821617,136.54577 C1.68144706,136.549107 1.0984586,136.31088 0.668736228,135.884001 C0.239167336,135.457912 -0.00096500779,134.87795 0.0021130876,134.273986 C-0.0248689142,133.66311 0.207541276,133.069149 0.642372601,132.637702 C1.07674474,132.206113 1.67432029,131.974681 2.28821617,132.002203 L165.83686,132.002203 C168.797937,131.994055 171.640697,133.159733 173.738415,135.242247 C175.832431,137.321419 177.006554,140.147747 176.999972,143.093412 L176.999972,149.908763 C176.969843,156.021062 171.990883,160.969948 165.83686,160.999972 L165.83686,160.999972 Z" id="Shape" fill="#74CF70" fill-rule="nonzero"></path>
                    <path d="M176.130246,78.500636 C176.141418,73.4496898 178.675375,68.7466869 182.865472,66.000117 L40.3658458,66.000117 C39.4711182,65.9925948 38.6107223,66.3480942 37.977022,66.987134 C37.3446448,67.6252484 36.9925837,68.4938862 37.0001188,69.3974396 L37.0001188,87.6025604 C36.9925751,88.5056301 37.3446123,89.3743576 37.9782793,90.012866 C38.6119795,90.6519058 39.4723755,91.0074052 40.3671031,90.999883 L183,90.999883 C178.758902,88.2855616 176.171282,83.5774899 176.130246,78.500636 L176.130246,78.500636 Z" id="Shape" fill="#F0F1F2" fill-rule="nonzero"></path>
                    <path d="M180.70128,92.9999609 L46.1462905,92.9999609 C43.1897842,93.0077772 40.3515081,91.8419907 38.257028,89.7595448 C36.1659374,87.6801336 34.9934551,84.8534809 35.0000275,81.9074785 L35.0000275,75.0913445 C34.9937895,72.1457754 36.1662463,69.3196349 38.257028,67.2405293 C40.3518154,65.1577762 43.1906038,63.9919645 46.1475442,64.0001132 L180.71507,64.0001132 C181.321287,63.9940571 181.904531,64.2312843 182.333801,64.6585115 C182.763071,65.0857387 183.002381,65.6671509 182.99798,66.2721578 C183.024306,66.8814562 182.79238,67.475741 182.358615,67.9073794 C181.924849,68.3390179 181.328109,68.5704762 180.713817,68.5429514 L46.1462905,68.5429514 C42.5157003,68.5504582 39.5733677,71.4780928 39.5670994,75.0913445 L39.5670994,81.9074785 C39.5733677,85.5207302 42.5157003,88.4483648 46.1475442,88.4558716 L180.71507,88.4558716 C181.974996,88.4558716 182.996726,89.473037 182.996726,90.7279163 C182.994651,91.9838274 181.973524,93.0006531 180.71507,92.9999609 L180.70128,92.9999609 L180.70128,92.9999609 Z" id="Shape" fill="#1B6CE1" fill-rule="nonzero"></path>
                    <path d="M367.549189,231.964797 C367.804503,233.300741 368.591582,234.472772 369.726916,235.207631 C370.861928,235.943495 372.248888,236.179978 373.562259,235.861733 L385.988773,233.173627 C387.314238,232.918198 388.478584,232.127481 389.211709,230.984902 C389.943526,229.843608 390.178884,228.449445 389.862782,227.128219 L352.451031,50.0340006 C352.1954,48.698519 351.408357,47.5269947 350.273304,46.7924243 C349.136689,46.0563127 347.751371,45.8200526 346.43796,46.1383228 L334.012693,48.8251706 C332.686771,49.0802812 331.521922,49.8710345 330.78851,51.013895 C330.056348,52.1555221 329.820977,53.5502149 330.137437,54.8718362 L367.549189,231.963539 L367.549189,231.964797 Z" id="Shape" fill="#74CF70" fill-rule="nonzero"></path>
                    <path d="M332,62.7889639 L354.464949,58 L355.66236,63.6489406 L333.197412,68.4366473 L332,62.7889639 Z M363.221727,209.095646 L385.68793,204.307939 L388,215.211036 L365.533798,220 L363.221727,209.095646 Z M359.618207,192.479488 L382.08441,187.691781 L384.39648,198.594878 L361.930278,203.382584 L359.618207,192.479488 Z" id="Shape" fill="#1FAB54" fill-rule="nonzero"></path>
                    <path d="M119.189378,228 C115.790915,227.968782 113.040853,225.223645 113,221.821704 L113,86.1783125 C113.040853,82.7763719 115.790915,80.0312346 119.189378,80.0000166 L328.811865,80.0000166 C330.453204,79.9962092 332.028733,80.6457196 333.191403,81.8054771 C334.352299,82.9635749 335.003338,84.5376725 334.999987,86.1783125 L334.999987,221.821704 C334.959146,225.223161 332.209838,227.968103 328.811865,228 L119.189378,228 L119.189378,228 Z" id="Shape" fill="#1B6CE1" fill-rule="nonzero"></path>
                    <path d="M328.354692,81.6733338 C329.635818,81.6697246 330.865715,82.1758803 331.772914,83.0800803 C332.678428,83.9823801 333.185965,85.2087725 333.182774,86.4868097 L333.182774,221.511941 C333.186299,222.790412 332.678736,224.017317 331.772914,224.919922 C330.86551,225.823663 329.635639,226.329358 328.354692,226.325417 L119.511334,226.325417 C118.230387,226.329358 117.000516,225.823663 116.093111,224.919922 C115.187289,224.017317 114.679727,222.790412 114.683251,221.511941 L114.683251,86.4868097 C114.680061,85.2087725 115.187598,83.9823801 116.093111,83.0800803 C117.000311,82.1758803 118.230207,81.6697246 119.511334,81.6733338 L328.355944,81.6733338 L328.354692,81.6733338 Z M328.354692,79.000015 L119.511334,79.000015 C117.519271,78.996043 115.60727,79.7834732 114.196186,81.1889825 C112.787361,82.5920153 111.996852,84.4989566 112.000009,86.4868097 L112.000009,221.511941 C111.996852,223.499794 112.787361,225.406736 114.196186,226.809768 C115.607066,228.215736 117.519092,229.003627 119.511334,228.999987 L328.488666,228.999987 C330.480908,229.003627 332.392934,228.215736 333.803814,226.809768 C335.212639,225.406736 336.003148,223.499794 335.999991,221.511941 L335.999991,86.4868097 C335.898571,82.3429151 332.512903,79.0275491 328.354692,79.000015 Z" id="Shape" fill="#D6D8DA" fill-rule="nonzero"></path>
                    <path d="M346,226 C345.977473,231.513654 341.668624,235.977893 336.346076,236 L111.652673,236 C106.330124,235.977893 102.021275,231.513654 102,226 L345.998749,226 L346,226 Z" id="Shape" fill="#D6D8DA" fill-rule="nonzero"></path>
                    <path d="M247,225 C247,227.207874 245.23681,228.999997 243.064489,228.999997 L204.934244,228.999997 C203.892161,229.001367 202.892225,228.58071 202.154411,227.830565 C201.416597,227.08042 201.001343,226.062235 201,225 L246.998733,225 L247,225 Z" id="Shape" fill="#1B6CE1" fill-rule="nonzero"></path>
                    <polygon id="Shape" fill="#66AFE9" fill-rule="nonzero" points="121 89 326 89 326 220 121 220"></polygon>
                    <g id="Group-13" transform="translate(172.000000, 108.000000)" fill-rule="nonzero">
                        <path d="M40.9082147,68.5925455 C41.9729248,77.8191008 45.9646558,79.4252976 45.8329647,81.2968987 C45.7000312,85.1753069 46.0988316,88.2512426 44.6353212,93.5993897 L59.9413051,94 C58.0777518,89.8561875 59.5412623,79.9598619 59.5412623,79.9598619 C64.8648127,76.482064 66.0624563,69.9295823 68.4577434,66.9876006 C70.8530304,64.0456189 72.3177833,64.0456189 74.4459611,62.0400637 C76.5766236,60.0345086 72.050674,59.3659902 69.5224534,60.3024167 C66.9942329,61.2375913 64.8635703,65.6505638 63.5342357,65.2499535 C62.2024163,64.8493433 61.4035732,60.5690729 62.0694829,58.4295637 C62.7353926,56.2900544 66.3283232,45.5912564 67.5259667,42.3826185 C68.7236103,39.1727287 64.9977462,39.4406368 64.5977034,40.6437195 C64.2001454,41.8480542 59.9400627,49.4696646 58.7424192,52.5456003 C57.5447756,55.621536 56.7459325,55.3536279 56.612999,52.8135084 C56.4800655,50.9406554 56.7459325,39.8412471 57.0117994,36.4986551 C57.2789087,33.1560632 53.6847357,33.5566735 53.2846929,35.4282746 C52.8871349,37.3011276 51.8211824,50.5387932 51.2894486,52.5456003 C50.7564724,54.5511555 50.2247385,55.2196739 49.8259381,53.4820268 C49.4258953,51.7431279 46.7647413,41.0455817 46.497632,39.1727287 C46.2317651,37.3011276 43.5706111,37.7017379 43.4376776,39.9752011 C43.3035018,42.2486644 44.3694542,53.3480728 44.7670123,55.2196739 C45.167055,57.0925269 44.3694542,57.0925269 43.3035018,56.0221463 C42.2387917,54.9530177 39.3117708,49.3369624 38.1128848,47.4641094 C36.9152413,45.5912564 33.8540445,45.8591645 35.4517308,49.2030084 C37.1823506,52.2776922 39.7105711,58.0289534 40.9082147,68.5925455 L40.9082147,68.5925455 Z" id="Shape" fill="#1B6CE1"></path>
                        <path d="M49.0658069,29.5376853 C49.0658069,29.5376853 43.9573212,26.4565062 45.1669946,20.6966952 C46.2958442,16.7626451 48.6501215,13.2906055 51.8879598,10.7847539 C54.6336116,13.9369767 56.1176639,17.9914928 56.0553096,22.1701936 C55.9210409,29.1363922 50.2754803,29.9389785 50.2754803,29.9389785 C50.2754803,29.9389785 51.3508849,20.4283304 50.8125552,20.295402 C50.2754803,20.1612196 49.0658069,28.1983694 49.0658069,29.5376853 L49.0658069,29.5376853 Z M38.176237,70.7956393 C38.190626,73.2551846 36.5284388,75.4090035 34.1444108,76.0199748 C30.5141359,77.09218 26.2137722,75.4844992 25.5411737,75.2161344 C26.4518752,72.5020011 28.3789785,70.245796 30.9181969,68.9208478 C33.1389671,67.5811854 35.9940539,67.9713335 37.7734309,69.8576165 C37.7734309,69.8576165 31.5895405,72.2691377 31.7250641,72.6716849 C31.8593328,73.0729781 37.3706247,71.3311149 38.176237,70.7956393 Z M74.4714571,39.583809 C73.9888329,37.0948514 75.049157,34.5597198 77.1605961,33.15434 C79.7023185,31.7358384 82.5847449,31.0413951 85.4940408,31.1466202 C85.2209656,34.1060714 83.8834738,36.8662163 81.7294972,38.9154051 C78.1004771,42.3991314 75.008532,40.2559751 75.008532,40.2559751 C75.008532,40.2559751 80.3855551,35.834226 80.1157628,35.5658612 C78.1360511,36.7627238 76.2489093,38.1062226 74.4702022,39.5850631 L74.4714571,39.583809 Z M69.4984949,52.1768903 C71.3762447,54.5664002 74.6025938,55.4377707 77.4291335,54.3187926 C80.8703154,52.9401469 83.8523389,50.6190022 86.0323706,47.6222128 C83.0775262,45.6274215 79.4625271,44.8584803 75.9509227,45.4778025 C69.7670324,46.4158252 69.2287026,51.1046851 69.2287026,51.1046851 C69.2287026,51.1046851 77.5634022,49.0944572 77.6989258,49.6311868 C77.8331945,49.8982975 70.7081683,51.9085255 69.4984949,52.1768903 L69.4984949,52.1768903 Z M33.2032749,60.7495156 C34.3998976,57.533545 33.2992377,53.9149429 30.5141359,51.9085255 C27.0330407,49.4336697 22.9439527,47.9515859 18.6846849,47.6209588 C18.5118127,51.6733426 19.9634207,55.6272665 22.717766,58.6063593 C27.4234455,63.9636231 32.262139,61.6862844 32.262139,61.6862844 C32.262139,61.6862844 25.2726363,54.8555222 25.6741876,54.452975 C26.0782486,54.0516818 32.262139,59.6773105 33.2032749,60.7482616 L33.2032749,60.7495156 Z M38.9831042,38.3786755 C38.9831042,38.3786755 33.0690062,36.9051771 32.262139,31.0111837 C31.4552718,25.6526659 34.547217,20.6966952 35.0855467,19.7586724 C38.6338584,21.3998762 41.3203566,24.4664935 42.4791104,28.1983694 C44.7629335,34.7620208 40.3270463,38.1103107 40.3270463,38.1103107 C40.3270463,38.1103107 38.0432231,29.8060502 37.7734309,30.3415257 C37.5048934,30.8770013 38.0419683,34.8962032 38.9831042,38.3786755 L38.9831042,38.3786755 Z M29.0359251,44.2726689 C29.0359251,44.2726689 22.5834973,46.0145321 18.8189536,40.7901966 C16.4395179,37.2383569 15.3053819,32.9984448 15.5939946,28.733845 C19.7600896,28.4103024 23.8672067,29.8725143 26.8851158,32.7530469 C32.5319313,37.7090175 29.977061,43.2004637 29.977061,43.2004637 C29.977061,43.2004637 23.5246332,36.503884 23.3891096,37.1735419 C23.5246332,37.8431999 26.4823096,41.3256722 29.0359251,44.2726689 Z M70.0493731,69.5905058 C72.3621536,67.8020621 75.4936018,67.4899464 78.1142805,68.7866654 C80.8564748,70.3884938 82.9497252,72.9006432 84.0296334,75.8857924 C81.3265662,77.4191965 78.0928113,77.7121957 75.1578589,76.6896328 C72.1987778,76.0504061 70.0117373,73.5439398 69.7808357,70.5272745 C69.7808357,70.5272745 76.2332635,73.0729781 76.0989948,72.5375025 C74.1808476,71.3650956 72.1551252,70.3782906 70.0493731,69.5905058 L70.0493731,69.5905058 Z M61.5666015,34.0246446 C61.5666015,34.0246446 59.2827783,28.1306512 63.7174108,23.8443385 C66.8902518,21.183995 70.8697253,19.6734831 75.0097868,19.5580258 C75.7495747,23.5202196 74.7721867,27.6100302 72.3206478,30.8105371 C68.1545529,36.7045305 62.5077374,34.9626674 62.5077374,34.9626674 C62.5077374,34.9626674 68.2888216,27.9977228 67.6162231,27.9977228 C66.9436246,27.9977228 63.987203,31.2795485 61.5678563,34.0246446 L61.5666015,34.0246446 Z M12.3665258,37.4419067 C11.011769,35.4331096 8.49263043,34.5593614 6.18389035,35.2974964 C3.5827793,36.3452742 1.40634698,38.2312151 8.52651283e-13,40.6560142 C2.20203504,42.402407 4.9998181,43.2196462 7.79636987,42.933353 C12.5020494,42.3978774 12.6363181,38.6470403 12.6363181,38.6470403 C12.6363181,38.6470403 6.31815907,39.9863562 6.31815907,39.3166983 C6.18389035,39.0483335 11.4253899,37.5748351 12.3665258,37.4406527 L12.3665258,37.4419067 Z M74.8755181,13.5975682 C76.5101555,14.8165192 78.7521725,14.8165192 80.38681,13.5975682 C82.1911996,11.9974682 83.3797869,9.81787035 83.7472926,7.43521 C81.4521775,6.66823211 78.9499111,6.81189647 76.7577899,7.83650317 C73.127515,9.57962038 74.2029196,12.6595455 74.2029196,12.6595455 C74.2029196,12.6595455 78.9085992,9.71254874 79.1771366,10.2480243 C79.4456741,10.7847539 75.6823853,13.3292034 74.8755181,13.5963142 L74.8755181,13.5975682 Z M50.1412115,7.23456342 C51.035191,5.74871213 50.8721674,3.85693146 49.7371505,2.54570354 C48.2948599,1.09907716 46.3938311,0.199052038 44.3601274,1.42108547e-14 C43.8398314,1.99406786 44.129886,4.11285478 45.1669946,5.89399343 C45.896845,7.5397638 47.764869,8.3544567 49.4686131,7.77003899 C49.4686131,7.77003899 46.6452054,4.02045594 47.1835351,3.75209113 C48.2627043,4.83056653 49.2502696,5.9968248 50.1412115,7.23456342 L50.1412115,7.23456342 Z M29.4399861,11.7215227 C27.6976567,11.7646366 26.1248488,10.684058 25.5411737,9.04289076 C25.0919436,7.08143554 25.2320672,5.03109996 25.9439799,3.14889734 C27.9332087,3.67742111 29.6278732,4.97989326 30.6496594,6.76555203 C31.7422624,8.19958772 31.5674497,10.2281736 30.2455984,11.4544119 C30.2455984,11.4544119 28.3633266,7.1668452 27.8262517,7.43521 C28.1901576,8.92250281 28.7322519,10.3621421 29.4387312,11.7215227 L29.4399861,11.7215227 Z M89.6626455,38.5128579 C91.3317483,40.5940488 94.1316874,41.3988278 96.6521482,40.5218318 C99.4274064,39.1120422 101.685778,36.8617064 103.104576,34.0923628 C100.52917,32.2773767 97.339516,31.5550937 94.2328015,32.0833889 C89.1255706,33.0201576 89.2585845,37.3064703 89.2585845,37.3064703 C89.2585845,37.3064703 96.2480872,35.2974964 96.2480872,36.1025908 C96.3836107,36.3697016 90.6025266,38.3786755 89.6626455,38.5128579 L89.6626455,38.5128579 Z M61.983211,16.8129298 C59.6491852,15.2130109 58.6613953,12.2592265 59.5638643,9.57836634 C60.9188023,6.44956635 63.2233434,3.8253945 66.1518156,2.07669215 C68.1688253,4.70710883 69.0408683,8.03844949 68.5711623,11.3189755 C68.3666563,14.3176189 66.0470445,16.7418043 63.0586156,17.0800405 C63.0586156,17.0800405 64.8066187,9.57836634 64.4038125,9.44418393 C63.9997515,9.31125557 62.1049312,15.874907 61.983211,16.8116757 L61.983211,16.8129298 Z M80.5210787,24.0462391 C80.1651131,21.7600498 81.3734275,19.5160893 83.4787551,18.5535389 C86.7037142,17.0800405 91.0065876,17.8838809 91.6779312,18.0180633 C91.2599818,20.6905491 89.813039,23.0938193 87.646105,24.7146431 C85.7623027,26.3215133 83.0059056,26.3776552 81.0581536,24.8488255 C81.0581536,24.8488255 86.4364316,21.634718 86.300908,21.2321708 C86.1666393,20.8308776 81.3279459,23.5095095 80.5210787,24.0462391 L80.5210787,24.0462391 Z M23.2560957,65.0358283 C22.3082864,63.1239555 20.2711736,62.0022884 18.14761,62.223014 C15.5804171,62.6864189 13.2269067,63.9528791 11.4266448,65.8396687 C13.1368958,67.684787 15.5000327,68.7902346 18.0133413,68.9208478 C20.2742148,69.2833761 22.4741964,67.9904418 23.2560957,65.8396687 C21.2835464,65.928902 19.3072092,65.8840713 17.3407428,65.7054863 C17.3407428,65.3041931 22.4479737,64.8351817 23.2560957,65.0358283 Z M11.6951822,29.2693205 C11.7970285,27.0961791 10.4982096,25.1009894 8.46896834,24.3133499 C6.02190663,23.5209097 3.38694276,23.5209097 0.939881061,24.3133499 C1.55335087,26.762121 3.09661283,28.8760516 5.24275444,30.2073433 C7.03639787,31.5993056 9.56105485,31.5432963 11.2911212,30.0731609 C11.2911212,30.0731609 6.04836678,27.394529 6.18389035,26.9919818 C6.31815907,26.5906886 11.0225838,28.8680274 11.6951822,29.2693205 L11.6951822,29.2693205 Z M28.9004015,23.7778743 C26.1657724,25.7788312 22.4347265,25.7240584 19.7600896,23.6436919 C15.5939946,20.4283304 13.9802602,14.534337 13.7117228,13.4633858 C17.433517,12.2280052 21.4934832,12.5165924 25.002844,14.2659722 C30.9181969,17.2129689 29.4387312,22.5714867 29.4387312,22.5714867 C29.4387312,22.5714867 21.6423614,17.7496985 21.3738239,18.2851741 C21.3738239,18.6864672 27.691983,23.2423988 28.9016563,23.7778743 L28.9004015,23.7778743 Z M79.7142115,59.4089456 C82.078062,56.9977069 85.7576158,56.4505856 88.7215096,58.0696297 C93.2916656,60.6153332 95.845281,66.2409619 96.249342,67.1789846 C92.7580113,68.9736714 88.696878,69.3110172 84.9569659,68.1170074 C78.6388069,66.1067795 79.1771366,60.6153332 79.1771366,60.6153332 C79.1771366,60.6153332 87.646105,64.2319879 87.7803737,63.5623299 C88.0489111,63.1610368 80.9238849,59.6773105 79.7142115,59.4101997 L79.7142115,59.4089456 Z M15.862532,53.2478415 C15.0182987,55.5311357 12.783335,56.9977777 10.3512402,56.8644961 C7.45132171,56.4561505 4.73771229,55.1975379 2.55361543,53.2478415 C4.2723315,50.9615323 6.84109286,49.464579 9.67864169,49.0957112 C12.2495817,48.5077497 14.8680041,49.8686876 15.862532,52.3098187 C15.862532,52.3098187 9.14031195,52.5781835 9.27458067,52.9794766 C9.41010424,53.3807698 14.9339446,53.5162063 15.862532,53.2478415 L15.862532,53.2478415 Z M90.3339891,48.1576884 C91.5503624,46.2108649 93.8966093,45.2866093 96.1150733,45.8803497 C98.7502538,46.7882755 101.015254,48.5276305 102.567501,50.8363203 C100.505159,52.560725 97.857113,53.4244247 95.1739374,53.2478415 C92.7246657,53.2608395 90.6230983,51.5065972 90.1997204,49.0957112 C90.1997204,49.0957112 96.3836107,50.1666623 96.3836107,49.7653692 C94.4144434,49.0664679 92.3916509,48.5288014 90.335244,48.1576884 L90.3339891,48.1576884 Z M41.4024509,17.7496985 C38.6689757,17.8411158 36.1599993,16.2452493 35.0855467,13.7317506 C34.0770834,10.7329824 34.0770834,7.48698151 35.0855467,4.48821329 C38.1626975,5.30156744 40.8384881,7.20626868 42.6133791,9.84673114 C45.5698007,14.4014086 42.3435868,17.2142229 42.3435868,17.2142229 C42.3435868,17.2142229 38.8488355,10.6505715 38.4460293,10.9189363 C38.0419683,11.1860471 40.865376,16.9458581 41.4024509,17.7496985 L41.4024509,17.7496985 Z" id="Shape" fill="#97D594"></path>
                    </g>
                    <path d="M76.9235172,64.5003277 L114.832472,64.5003277 C130.02115,56.0618848 133.381633,37.5760641 128.945746,28.065416 C123.165916,15.3394064 107.303384,9.57959537 95.8779944,17.8851099 C84.4526044,9.57959537 68.7243411,15.3394064 62.8089882,28.065416 C58.373101,37.5760641 61.7335836,55.9277024 76.924772,64.5003277 L76.9235172,64.5003277 Z" id="Path" fill="#74CF70"></path>
                    <path d="M95.9277461,17.9982899 C94.8758346,17.97115 94.0284735,17.0823383 94.0000407,15.9762863 L94.0000407,13.414072 C93.9936634,11.4443944 94.7365993,9.55382289 96.0633816,8.16342596 C97.3930726,6.77069414 99.1955284,5.99220717 101.072295,6.00005882 C102.136974,6.00005882 103,6.90503796 103,8.02206241 C103,9.13908686 102.136974,10.044066 101.072295,10.044066 C100.218103,10.0366015 99.3966872,10.3893745 98.7916968,11.0235134 C98.1870892,11.656316 97.8500927,12.5183441 97.8566517,13.4153342 L97.8566517,15.9775484 C97.8686549,16.516497 97.6682023,17.037775 97.304507,17.4189517 C96.9398151,17.8013813 96.4426721,18.0110338 95.9277461,17.999552 L95.9277461,17.9982899 Z" id="Shape" fill="#1FAB54" fill-rule="nonzero"></path>
                    <path d="M92.9604519,2.04819449 C95.8698457,4.96944105 94.8127824,10.8119342 94.8127824,10.8119342 C94.8127824,10.8119342 89.123658,11.8735276 86.0821312,8.95228105 C83.0381348,6.03103448 84.2298007,0.188541354 84.2298007,0.188541354 C84.2298007,0.188541354 90.1029234,-0.874295163 92.9604519,2.0469514 L92.9604519,2.04819449 Z" id="Shape" fill="#1FAB54" fill-rule="nonzero"></path>
                </g>
            </g>
        </g>
    </g>
</svg>